Coordinates
version=1
nRows=17
nColumns=40
inDegrees=yes

Units are S.I. units (second, meters, Newtons, ...)
Angles are in degrees.

endheader
time	pelvis_tilt	pelvis_list	pelvis_rotation	pelvis_tx	pelvis_ty	pelvis_tz	hip_flexion_r	hip_adduction_r	hip_rotation_r	knee_angle_r	knee_angle_r_beta	ankle_angle_r	subtalar_angle_r	mtp_angle_r	hip_flexion_l	hip_adduction_l	hip_rotation_l	knee_angle_l	knee_angle_l_beta	ankle_angle_l	subtalar_angle_l	mtp_angle_l	lumbar_extension	lumbar_bending	lumbar_rotation	arm_flex_r	arm_add_r	arm_rot_r	elbow_flex_r	pro_sup_r	wrist_flex_r	wrist_dev_r	arm_flex_l	arm_add_l	arm_rot_l	elbow_flex_l	pro_sup_l	wrist_flex_l	wrist_dev_l
     33.16964286	     -5.81455396	     -3.69041639	     -5.11739799	      1.09809392	      0.92765115	      0.41909309	     24.94280451	     -1.31294710	    -13.79263128	      6.30213972	      6.30213972	     -1.01316331	     13.87370035	      6.05344094	      9.37044142	     -5.67654804	    -12.91557876	     18.99186933	     18.99186933	     15.81400932	     -9.05256691	     -2.87059318	    -11.38868158	      3.47117670	      0.17755450	     -6.78641983	    -13.75133303	     -4.96880253	     38.21995870	     46.07089659	      0.00000000	      0.00000000	     17.31291592	    -18.52354196	      1.04121309	     66.64728897	     46.64001155	      0.00000000	      0.00000000
     33.18428571	     -5.62000568	     -3.45346210	     -5.04626258	      1.09862147	      0.92711443	      0.42089477	     24.48497136	     -1.67105252	    -13.51170030	      7.65889248	      7.65889248	     -0.91165398	     13.11197877	      5.41434346	      8.55850646	     -5.45825551	    -12.99019124	     18.69788691	     18.69788691	     16.14922768	     -8.81144929	     -2.92825111	    -11.31304367	      3.38117329	     -0.01734982	     -6.28260626	    -14.00825871	     -5.13233562	     38.55830254	     46.06777001	      0.00000000	      0.00000000	     16.72161490	    -18.34333763	      1.21690185	     66.15495970	     46.62212606	      0.00000000	      0.00000000
     33.19892857	     -5.45585192	     -3.07127115	     -4.91275219	      1.09940149	      0.92641748	      0.42271859	     24.15648940	     -2.19116334	    -12.80493806	      9.24799118	      9.24799118	     -0.83127754	     11.97443628	      4.14965712	      7.74266417	     -5.08037101	    -13.10383361	     18.31943289	     18.31943289	     16.48812587	     -8.40445491	     -2.95272020	    -11.11931205	      3.13442250	     -0.29714007	     -5.84066424	    -14.20030029	     -5.34804719	     39.08067793	     46.05811304	      0.00000000	      0.00000000	     16.10170748	    -18.10339213	      1.24991837	     65.33197855	     46.61235426	      0.00000000	      0.00000000
     33.21357143	     -5.19205442	     -2.80173469	     -4.76000238	      1.10052160	      0.92585097	      0.42471481	     23.67696360	     -2.55864851	    -12.03497168	     10.74486566	     10.74486566	     -0.69505926	     10.91500891	      2.88233859	      6.77788233	     -4.81991745	    -13.15170587	     17.92859297	     17.92859297	     16.88195508	     -8.05661086	     -2.91928650	    -11.01070106	      3.03706093	     -0.44981254	     -5.41920831	    -14.48935694	     -5.58540877	     39.64903718	     46.04797533	      0.00000000	      0.00000000	     15.43848641	    -17.75353455	      1.18017086	     64.40767444	     46.60715851	      0.00000000	      0.00000000
     33.22821429	     -4.91640318	     -2.57484816	     -4.61821506	      1.10175011	      0.92534587	      0.42686915	     23.23436447	     -2.82829210	    -11.15158008	     12.18603094	     12.18603094	     -0.44227005	      9.85186250	      1.60661885	      5.76027865	     -4.60074416	    -13.13931841	     17.47691325	     17.47691325	     17.25670028	     -7.70135013	     -2.76037341	    -10.92433066	      2.98641306	     -0.54167974	     -5.01473667	    -14.80894685	     -5.85768433	     40.31974380	     46.03518474	      0.00000000	      0.00000000	     14.70291228	    -17.33958371	      0.97040399	     63.28330051	     46.60901841	      0.00000000	      0.00000000
     33.24285714	     -4.58774550	     -2.50305667	     -4.46093985	      1.10315575	      0.92500720	      0.42921324	     22.75752924	     -2.90938199	    -10.42073651	     13.54296234	     13.54296234	      0.08687712	      8.98436620	      0.67510060	      4.67396256	     -4.55466543	    -13.07730028	     17.04027349	     17.04027349	     17.63514837	     -7.45690522	     -2.55144132	    -10.91534144	      3.17070539	     -0.55581017	     -4.53808846	    -15.20256510	     -6.10674042	     40.90040253	     46.02659046	      0.00000000	      0.00000000	     13.95050685	    -17.00624845	      0.76312863	     62.25853675	     46.60931230	      0.00000000	      0.00000000
     33.25750000	     -4.31117759	     -2.50778306	     -4.31603936	      1.10456629	      0.92474382	      0.43180412	     22.34509610	     -2.84782161	     -9.78450063	     14.71335899	     14.71335899	      0.75944221	      8.22420141	     -0.04573937	      3.69091058	     -4.62448873	    -12.99118319	     16.69394037	     16.69394037	     17.98874811	     -7.32585443	     -2.31184378	    -10.85008972	      3.41107457	     -0.47865643	     -4.05510991	    -15.61345230	     -6.33391947	     41.41327908	     46.02029324	      0.00000000	      0.00000000	     12.97180246	    -16.56326127	      0.60376134	     61.24020294	     46.60298491	      0.00000000	      0.00000000
     33.27214286	     -4.06325113	     -2.47145584	     -4.21648845	      1.10587289	      0.92461384	      0.43483006	     22.10856453	     -2.64198309	     -8.47459679	     15.87994723	     15.87994723	      1.11589429	      6.23768225	     -1.70976233	      2.78664988	     -4.68486117	    -12.87446759	     16.47816930	     16.47816930	     18.85400290	     -7.03715498	     -0.46889962	    -10.75362045	      3.56449671	     -0.27940383	     -4.08237888	    -15.92576707	     -7.05209107	     43.32039228	     45.96605360	      0.00000000	      0.00000000	     12.87255460	    -15.27003635	     -1.82785131	     57.99945957	     46.76668050	      0.00000000	      0.00000000
     33.28678571	     -3.77815840	     -2.71284670	     -4.09626418	      1.10716598	      0.92460612	      0.43809346	     21.76368882	     -2.27737618	     -8.25517234	     16.89846460	     16.89846460	      1.97996954	      5.82066311	     -2.20181476	      1.94548405	     -5.11460451	    -12.79265709	     16.43269739	     16.43269739	     19.08064703	     -7.09010636	     -0.31447069	    -10.81421488	      3.99930492	     -0.04803579	     -3.50072394	    -16.37674344	     -7.24148910	     43.63153784	     45.96669182	      0.00000000	      0.00000000	     11.74472747	    -14.98699783	     -1.79911331	     57.30620181	     46.74653635	      0.00000000	      0.00000000
     33.30142857	     -3.54253567	     -2.84595989	     -3.97772823	      1.10819099	      0.92459943	      0.44173880	     21.70980978	     -1.86095436	     -7.28618999	     18.19442382	     18.19442382	      2.97679459	      4.07144830	     -2.35135437	      1.36701908	     -5.50915836	    -12.65063288	     16.78881124	     16.78881124	     19.86605284	     -6.88877822	      1.22705908	    -10.75559774	      4.28455723	     -0.18091610	     -2.80563795	    -16.59504956	     -7.66745229	     44.83110815	     45.93083020	      0.00000000	      0.00000000	     11.14924455	    -14.41343892	     -3.69628937	     54.72559586	     46.86846789	      0.00000000	      0.00000000
     33.31607143	     -3.31415142	     -3.07548132	     -3.82420509	      1.10911151	      0.92459527	      0.44561171	     21.55998668	     -1.41965943	     -6.99717287	     19.26242794	     19.26242794	      3.92982324	      3.24487061	     -2.70281152	      0.99045587	     -6.08038626	    -12.44478132	     17.45271784	     17.45271784	     20.06713755	     -7.13104596	      1.43241764	    -10.76205861	      4.63082957	     -0.28045386	     -1.93831187	    -16.84027219	     -7.87417376	     45.44471237	     45.91925121	      0.00000000	      0.00000000	     10.01706162	    -14.37501303	     -4.04688702	     53.48492052	     46.87220233	      0.00000000	      0.00000000
     33.33071429	     -3.11526756	     -3.38157493	     -3.62729780	      1.10984650	      0.92467997	      0.44970869	     21.34621000	     -0.83746918	     -6.66736724	     20.11472349	     20.11472349	      4.79457471	      2.18324008	     -2.79258627	      0.93158475	     -6.83908320	    -12.15639210	     18.63728406	     18.63728406	     20.23739396	     -7.47848862	      1.62653567	    -10.75897119	      5.04413996	     -0.35339526	     -1.09493676	    -17.12005804	     -8.02280547	     46.14730407	     45.89901966	      0.00000000	      0.00000000	      9.11143037	    -14.15320394	     -4.93452596	     51.73197987	     46.91814110	      0.00000000	      0.00000000
     33.34535714	     -2.66902452	     -3.54644801	     -3.50541467	      1.11073613	      0.92527737	      0.45391928	     20.72523955	     -0.45636889	     -6.62573004	     20.72250164	     20.72250164	      5.64347650	      1.89997451	     -3.12785782	      0.60640590	     -7.42553334	    -11.91000585	     19.82127978	     19.82127978	     20.10274494	     -7.96327657	      1.53478900	    -11.03641583	      5.24305945	      0.05907372	     -0.49200733	    -17.49438666	     -8.15296582	     46.43840486	     45.89755897	      0.00000000	      0.00000000	      7.99067791	    -13.97843305	     -5.03662631	     50.94500071	     46.90703471	      0.00000000	      0.00000000
     33.36000000	     -2.66908652	     -3.89221040	     -3.12149937	      1.11079202	      0.92505965	      0.45813954	     20.63962861	      0.15728634	     -6.57332365	     21.38741310	     21.38741310	      6.45691624	      0.80737797	     -2.81544870	      1.65210740	     -8.46606535	    -11.25604624	     22.48138106	     22.48138106	     19.74098063	     -8.86198195	      0.54076770	    -10.82475797	      5.70891760	     -0.32265343	      0.41262535	    -17.73697454	     -7.94822951	     47.75135080	     45.82709564	      0.00000000	      0.00000000	      7.96305239	    -13.36537633	     -7.86814298	     47.10930970	     47.10798340	      0.00000000	      0.00000000
     33.37464286	     -2.40384953	     -4.09172093	     -2.77886904	      1.11099810	      0.92540673	      0.46226137	     20.09951336	      0.53424045	     -6.84329037	     21.76515603	     21.76515603	      7.11815476	      0.54809488	     -3.06915400	      2.48344625	     -9.29368273	    -10.53877624	     25.25857869	     25.25857869	     19.21921090	     -9.87790811	     -0.06423554	    -10.94832235	      5.96833396	     -0.40316152	      1.32392247	    -17.94674218	     -8.09213265	     48.33730472	     45.81543564	      0.00000000	      0.00000000	      6.95296646	    -13.48057224	     -8.03600740	     46.05947474	     47.09915594	      0.00000000	      0.00000000
     33.38928571	     -2.23619220	     -4.22499155	     -2.39270130	      1.11096337	      0.92568482	      0.46628738	     19.60390276	      0.85046842	     -7.10498177	     22.01407290	     22.01407290	      7.68931371	      0.28135140	     -3.26228452	      3.68252119	    -10.05052676	     -9.60547330	     28.32112813	     28.32112813	     17.58151724	    -11.53711511	     -2.61391754	    -10.93625272	      6.14124784	     -0.50065657	      2.02785079	    -18.30606019	     -7.74360594	     49.37849238	     45.75237564	      0.00000000	      0.00000000	      6.75588957	    -13.18535277	     -9.42306315	     42.89395575	     47.17634923	      0.00000000	      0.00000000
     33.40392857	     -2.03655555	     -4.37428290	     -1.95882200	      1.11075336	      0.92608665	      0.47012043	     18.97123449	      1.13443720	     -7.59400204	     22.07941546	     22.07941546	      8.20453231	      0.35819274	     -3.48421811	      5.24623894	    -10.86796747	     -8.64495089	     32.08002387	     32.08002387	     16.52104799	    -12.71673299	     -3.30598773	    -11.01105608	      6.33719736	     -0.52284185	      2.85485073	    -18.57931094	     -7.90602703	     49.95820978	     45.74169258	      0.00000000	      0.00000000	      5.82559070	    -13.25337297	     -9.52373059	     41.92869718	     47.16273306	      0.00000000	      0.00000000
